<?xml version='1.0' encoding='utf-8'?>
<svg xmlns="http://www.w3.org/2000/svg" width="1500pt" height="1500pt" version="1.0" viewBox="0 0 1500 1500"> <g transform="translate(0 1500) scale(.1 -.1)"> <path d="m6545 14505c-5-2-77-22-160-44-284-76-673-214-964-343-318-139-762-383-1056-578-741-493-1393-1145-1879-1879-606-915-971-1968-1055-3041-15-181-6-870 12-1035 81-728 271-1388 577-2010 480-975 1208-1769 2127-2316 173-103 525-276 708-349 436-172 868-282 1330-337 214-25 807-25 1015 0 80 10 162 22 183 28l37 10v534c0 503-1 535-17 535-10 0-79-15-153-34-164-42-334-70-540-92-213-22-660-15-875 15-966 132-1832 576-2535 1297-737 757-1211 1734-1369 2819-45 304-55 456-55 820 0 365 11 531 55 840 149 1038 585 2039 1257 2890 161 203 258 312 466 523 358 364 673 623 1086 895 501 329 1032 585 1625 783 121 40 213 73 205 73s-19-2-25-4z"/> <path d="m7870 13614c-25-2-103-9-175-14-71-6-209-22-305-36-1644-232-3092-1133-3963-2465-442-676-712-1416-814-2229-28-223-25-874 4-1087 12-84 24-157 28-163 4-7 188-10 541-10 473 0 534 2 534 15 0 9-13 68-30 133-178 700-150 1449 82 2182 115 364 339 811 570 1140 783 1110 2026 1846 3439 2034 298 40 457 50 764 50 284 0 455-9 705-40 1751-214 3342-1209 4386-2744 355-522 623-1068 836-1700 86-257 91-256 18 5-451 1592-1434 2959-2770 3852-882 590-1888 952-2935 1059-150 15-796 28-915 18z"/> <path d="m8065 12443c-126-10-334-34-360-41l-30-8-3-529c-1-291 2-533 6-537 5-5 60 5 123 21 283 73 507 101 854 108 218 4 317 2 445-11 515-51 973-182 1439-411 203-100 316-165 498-287 1044-697 1787-1827 2052-3118 224-1094 118-2253-302-3311-362-911-958-1749-1712-2409-689-603-1473-1049-2375-1351-235-79-217-80 50-3 1415 406 2647 1230 3537 2364 1137 1450 1604 3315 1262 5043-220 1113-742 2117-1509 2901-431 440-887 776-1424 1046-584 294-1243 480-1875 530-122 9-578 12-676 3z"/> <path d="m6309 10917c-578-292-1041-702-1388-1227-277-419-455-882-533-1380-20-127-22-184-23-450 0-270 3-321 23-447 127-793 501-1452 1092-1928 356-287 820-493 1287-572 186-31 738-22 794 13 5 3 9 126 9 275 0 250-1 269-17 269-10 0-63-11-119-25-324-80-734-70-1069 26-563 161-1072 560-1390 1089-258 430-380 865-392 1401-12 506 75 937 280 1384 167 364 384 674 681 970 263 263 527 459 841 627 140 74 85 56-76-25z"/> <path d="m7600 10716c-919-117-1698-588-2175-1316-184-281-292-529-374-861-53-211-71-368-71-599 0-166 19-384 35-410 4-6 111-10 277-10h270l-5 33c-3 17-17 86-31 152-60 285-62 537-5 840 36 198 89 354 184 550 233 478 639 879 1140 1125 401 196 738 277 1210 287 409 9 729-39 1099-167 787-272 1477-873 1881-1642 77-146 68-111-14 56-464 943-1293 1624-2288 1880-270 69-421 88-743 92-196 2-318-1-390-10z"/> <path d="m7728 10095c-54-8-102-16-108-20s-10-104-10-277v-270l33 5c17 3 84 16 147 30 326 72 693 59 1024-34 538-152 1018-515 1348-1019 169-257 316-618 377-927 51-253 56-308 56-623 0-314-9-405-61-651-197-937-842-1773-1734-2248-63-33-111-61-106-61 4 0 72 31 150 69 767 374 1382 1016 1711 1787 91 212 180 506 219 724 48 262 61 648 31 910-42 361-146 710-311 1040-269 537-674 963-1189 1249-285 159-633 273-958 316-145 19-481 19-619 0z"/> <path d="m9620 7464c0-9 9-50 20-92 70-278 78-620 20-922-165-861-863-1584-1786-1851-421-121-943-143-1399-59-973 182-1829 828-2329 1761-25 46-46 81-46 77 0-16 92-202 155-313 346-612 838-1091 1450-1416 314-166 698-291 1075-351 128-20 181-23 450-23 319 0 389 6 635 57 568 116 1111 406 1515 808 421 419 688 927 791 1505 30 167 38 541 15 703-8 62-18 117-21 123-4 5-119 9-276 9-239 0-269-2-269-16z"/> <path d="m11380 7286c0-7 11-63 25-125 126-558 126-1169-2-1736-285-1275-1197-2402-2448-3027-577-289-1136-454-1788-528-751-86-1522-20-2269 196-757 218-1519 616-2138 1118-295 238-676 612-905 886-439 527-779 1081-1049 1713-86 201-188 479-242 659-21 70-40 126-42 124-5-6 61-252 113-422 560-1805 1809-3291 3450-4104 713-353 1452-562 2265-642 181-18 839-18 1020 0 780 76 1475 274 2135 607 259 131 373 196 590 340 503 334 966 765 1326 1235 689 900 1068 1991 1069 3077 0 182-15 423-34 558l-11 80-532 3c-447 2-533 0-533-12z"/> </g> </svg>